<svg preserveAspectRatio="none" width="100%" height="100%" overflow="visible" style="display: block;" viewBox="0 0 24 24" fill="none" xmlns="http://www.w3.org/2000/svg">
<g id="stash:dashboard-light">
<path id="Vector" d="M12 15.3382C12.0755 15.3382 12.15 15.3424 12.2234 15.3506L16.2494 10.8757C16.3409 10.7742 16.4689 10.7131 16.6054 10.706C16.7419 10.6988 16.8756 10.7462 16.9772 10.8376C17.0788 10.9291 17.1398 11.0572 17.147 11.1937C17.1541 11.3301 17.1068 11.4639 17.0153 11.5654L13.2435 15.7551C13.497 15.9473 13.7026 16.1955 13.844 16.4804C13.9855 16.7652 14.059 17.079 14.0588 17.3971H9.94118C9.94118 16.851 10.1581 16.3274 10.5442 15.9413C10.9303 15.5551 11.454 15.3382 12 15.3382ZM4.79412 15.8529C4.65761 15.8529 4.52669 15.9072 4.43017 16.0037C4.33364 16.1002 4.27941 16.2311 4.27941 16.3676C4.27941 16.5042 4.33364 16.6351 4.43017 16.7316C4.52669 16.8281 4.65761 16.8824 4.79412 16.8824H6.33824C6.47474 16.8824 6.60566 16.8281 6.70219 16.7316C6.79871 16.6351 6.85294 16.5042 6.85294 16.3676C6.85294 16.2311 6.79871 16.1002 6.70219 16.0037C6.60566 15.9072 6.47474 15.8529 6.33824 15.8529H4.79412ZM19.7206 16.3676C19.7206 16.2311 19.6664 16.1002 19.5698 16.0037C19.4733 15.9072 19.3424 15.8529 19.2059 15.8529H17.6618C17.5253 15.8529 17.3943 15.9072 17.2978 16.0037C17.2013 16.1002 17.1471 16.2311 17.1471 16.3676C17.1471 16.5042 17.2013 16.6351 17.2978 16.7316C17.3943 16.8281 17.5253 16.8824 17.6618 16.8824H19.2059C19.3424 16.8824 19.4733 16.8281 19.5698 16.7316C19.6664 16.6351 19.7206 16.5042 19.7206 16.3676ZM18.1765 13.2794C18.4495 13.2794 18.7113 13.171 18.9044 12.9779C19.0974 12.7849 19.2059 12.523 19.2059 12.25C19.2059 11.977 19.0974 11.7151 18.9044 11.5221C18.7113 11.329 18.4495 11.2206 18.1765 11.2206C17.9035 11.2206 17.6416 11.329 17.4486 11.5221C17.2555 11.7151 17.1471 11.977 17.1471 12.25C17.1471 12.523 17.2555 12.7849 17.4486 12.9779C17.6416 13.171 17.9035 13.2794 18.1765 13.2794ZM6.85294 12.25C6.85294 12.523 6.74449 12.7849 6.55143 12.9779C6.35838 13.171 6.09655 13.2794 5.82353 13.2794C5.55051 13.2794 5.28868 13.171 5.09563 12.9779C4.90257 12.7849 4.79412 12.523 4.79412 12.25C4.79412 11.977 4.90257 11.7151 5.09563 11.5221C5.28868 11.329 5.55051 11.2206 5.82353 11.2206C6.09655 11.2206 6.35838 11.329 6.55143 11.5221C6.74449 11.7151 6.85294 11.977 6.85294 12.25ZM7.88235 9.67647C8.15537 9.67647 8.4172 9.56801 8.61026 9.37496C8.80331 9.18191 8.91176 8.92008 8.91176 8.64706C8.91176 8.37404 8.80331 8.11221 8.61026 7.91915C8.4172 7.7261 8.15537 7.61765 7.88235 7.61765C7.60934 7.61765 7.3475 7.7261 7.15445 7.91915C6.9614 8.11221 6.85294 8.37404 6.85294 8.64706C6.85294 8.92008 6.9614 9.18191 7.15445 9.37496C7.3475 9.56801 7.60934 9.67647 7.88235 9.67647ZM17.1471 8.64706C17.1471 8.92008 17.0386 9.18191 16.8456 9.37496C16.6525 9.56801 16.3907 9.67647 16.1176 9.67647C15.8446 9.67647 15.5828 9.56801 15.3897 9.37496C15.1967 9.18191 15.0882 8.92008 15.0882 8.64706C15.0882 8.37404 15.1967 8.11221 15.3897 7.91915C15.5828 7.7261 15.8446 7.61765 16.1176 7.61765C16.3907 7.61765 16.6525 7.7261 16.8456 7.91915C17.0386 8.11221 17.1471 8.37404 17.1471 8.64706ZM12.5147 6.07353C12.5147 5.93702 12.4605 5.8061 12.364 5.70958C12.2674 5.61305 12.1365 5.55882 12 5.55882C11.8635 5.55882 11.7326 5.61305 11.636 5.70958C11.5395 5.8061 11.4853 5.93702 11.4853 6.07353V7.61765C11.4853 7.75416 11.5395 7.88507 11.636 7.9816C11.7326 8.07812 11.8635 8.13235 12 8.13235C12.1365 8.13235 12.2674 8.07812 12.364 7.9816C12.4605 7.88507 12.5147 7.75416 12.5147 7.61765V6.07353Z" fill="var(--fill-0, #5F4A4D)"/>
<path id="Vector_2" d="M12 3.5C6.03044 3.5 1.19118 8.33927 1.19118 14.3088C1.19118 15.8159 1.5 17.2519 2.05794 18.5562L2.06206 18.5654C2.28029 19.0771 2.41824 19.3993 2.85471 19.8635C3.02456 20.0447 3.26853 20.2341 3.50529 20.3896C3.74206 20.545 4.01279 20.6963 4.24544 20.7807C4.84456 21 5.36132 21 6.17147 21H17.8285C18.6387 21 19.1565 21 19.7546 20.7818C19.9872 20.6963 20.2569 20.546 20.4937 20.3906C20.7304 20.2331 20.9754 20.0447 21.1453 19.8635C21.5818 19.4003 21.7197 19.0771 21.9379 18.5654L21.9421 18.5562C22.5 17.2519 22.8088 15.8159 22.8088 14.3088C22.8088 8.33927 17.9696 3.5 12 3.5ZM2.22059 14.3088C2.22059 11.7152 3.25092 9.22773 5.08491 7.39374C6.91891 5.55974 9.40634 4.52941 12 4.52941C14.5937 4.52941 17.0811 5.55974 18.9151 7.39374C20.7491 9.22773 21.7794 11.7152 21.7794 14.3088C21.7804 15.6295 21.514 16.9367 20.996 18.1516C20.784 18.6468 20.7037 18.831 20.3949 19.1594C20.3022 19.2572 20.1313 19.3962 19.9275 19.53C19.7632 19.6433 19.5872 19.7385 19.4025 19.8141C18.9907 19.9644 18.6531 19.9706 17.7678 19.9706H6.23221C5.34691 19.9706 5.01029 19.9644 4.59853 19.8141C4.41421 19.7382 4.23827 19.6433 4.07353 19.531C3.90494 19.4237 3.74797 19.2992 3.60515 19.1594C3.29632 18.83 3.21603 18.6468 3.00397 18.1506C2.48618 16.936 2.2197 15.6292 2.22059 14.3088Z" fill="var(--fill-0, #5F4A4D)"/>
</g>
</svg>
