<svg width="64" height="64" viewBox="0 0 64 64" fill="none" xmlns="http://www.w3.org/2000/svg">
  <rect width="64" height="64" fill="#D29496"/>
  <circle cx="32" cy="32" r="21" stroke="#FFF8F5" stroke-width="3"/>
  <path d="M23.4 22.9C25.6 20.6 28.7 21.1 31.2 22.4C31.7 22.7 32.3 22.7 32.8 22.4C35.3 21.1 38.4 20.6 40.6 22.9C44.1 26.6 42.2 34.1 40.2 39.1C38.8 42.6 37.4 46.5 35.1 46.5C33.5 46.5 33.1 44.5 32.7 42.8C32.5 41.7 31.5 41.7 31.3 42.8C30.9 44.5 30.5 46.5 28.9 46.5C26.6 46.5 25.2 42.6 23.8 39.1C21.8 34.1 19.9 26.6 23.4 22.9Z" stroke="#FFF8F5" stroke-width="3" stroke-linejoin="round"/>
</svg>
